<?xml version="1.0" encoding="UTF-8"?>
<svg version="1.1" xmlns="http://www.w3.org/2000/svg" width="273" height="200">
<path d="M0 0 C90.09 0 180.18 0 273 0 C273 66 273 132 273 200 C182.91 200 92.82 200 0 200 C0 134 0 68 0 0 Z " fill="#EDEDED" transform="translate(0,0)"/>
<path d="M0 0 C40.59 0 81.18 0 123 0 C123 27.06 123 54.12 123 82 C82.41 82 41.82 82 0 82 C0 54.94 0 27.88 0 0 Z " fill="#ECECEC" transform="translate(74,58)"/>
<path d="M0 0 C40.59 0 81.18 0 123 0 C123 27.06 123 54.12 123 82 C82.41 82 41.82 82 0 82 C0 54.94 0 27.88 0 0 Z M4 4 C4 24.79 4 45.58 4 67 C8.63861777 63.02404191 13.03514044 59.09461534 17.30078125 54.76171875 C18.14445503 53.91236504 18.14445503 53.91236504 19.00517273 53.04585266 C20.77676744 51.26217914 22.54503304 49.47526323 24.3125 47.6875 C26.65989764 45.31354594 29.01056988 42.94290533 31.36328125 40.57421875 C31.89971756 40.0294841 32.43615387 39.48474945 32.98884583 38.92350769 C36.77446644 35.11276678 36.77446644 35.11276678 39 34 C39 33.34 39 32.68 39 32 C39.99 32 40.98 32 42 32 C42.20415527 32.53012695 42.40831055 33.06025391 42.61865234 33.60644531 C44.58396491 37.01187557 47.31822309 39.56304917 50.1015625 42.296875 C50.99625748 43.18732513 50.99625748 43.18732513 51.9090271 44.09576416 C53.8096981 45.98526627 55.71721474 47.86768392 57.625 49.75 C58.91712468 51.03209065 60.20879676 52.31463761 61.5 53.59765625 C64.66144479 56.73708432 67.8290461 59.87017801 71 63 C74.46629835 61.51346494 76.69022036 59.54277649 79.328125 56.8671875 C80.12734375 56.06152344 80.9265625 55.25585938 81.75 54.42578125 C82.9875 53.16314453 82.9875 53.16314453 84.25 51.875 C85.09046875 51.02550781 85.9309375 50.17601562 86.796875 49.30078125 C88.86915683 47.20495077 90.93662393 45.10459287 93 43 C96.79247523 44.75592405 99.10578004 46.96459858 102 50 C104.58180491 52.64800504 107.12728066 55.10341554 110 57.4375 C113.11334791 60.096818 115.42501132 62.83644247 118 66 C118.33 66 118.66 66 119 66 C119 45.54 119 25.08 119 4 C81.05 4 43.1 4 4 4 Z " fill="#6C6C6C" transform="translate(74,58)"/>
<path d="M0 0 C36.96 0 73.92 0 112 0 C112 0.66 112 1.32 112 2 C111.34 2 110.68 2 110 2 C109.67 2.66 109.34 3.32 109 4 C56.53 3.505 56.53 3.505 3 3 C3 3.66 3 4.32 3 5 C2.01 5 1.02 5 0 5 C0 3.35 0 1.7 0 0 Z " fill="#EEEEEE" transform="translate(79,62)"/>
<path d="M0 0 C1.26930894 0.00276538 1.26930894 0.00276538 2.56426048 0.00558662 C3.53463753 0.0028373 4.50501457 0.00008797 5.50479698 -0.00274467 C7.10701355 0.00804115 7.10701355 0.00804115 8.74159813 0.01904488 C9.8635508 0.01875282 10.98550346 0.01846077 12.1414547 0.01815987 C15.86420384 0.0195575 19.58675488 0.03513922 23.30946922 0.05078316 C25.88493808 0.05451174 28.46040835 0.05735944 31.03587914 0.0593586 C37.13093825 0.06622469 43.22591515 0.08200087 49.32094324 0.10205758 C56.93950067 0.12658474 64.55806967 0.13754853 72.17665672 0.14843941 C85.77046249 0.16793203 99.36411208 0.20799408 112.95790672 0.24609566 C112.62790672 19.71609566 112.29790672 39.18609566 111.95790672 59.24609566 C111.62790672 59.24609566 111.29790672 59.24609566 110.95790672 59.24609566 C110.62790672 40.76609566 110.29790672 22.28609566 109.95790672 3.24609566 C72.33790672 2.91609566 34.71790672 2.58609566 -4.04209328 2.24609566 C-2.04209328 0.24609566 -2.04209328 0.24609566 0 0 Z " fill="#646464" transform="translate(83.04209327697754,58.75390434265137)"/>
<path d="M0 0 C1.98 0 3.96 0 6 0 C6 0.33 6 0.66 6 1 C42.96 1.33 79.92 1.66 118 2 C118 2.33 118 2.66 118 3 C79.72 3 41.44 3 2 3 C2 23.79 2 44.58 2 66 C1.34 65.67 0.68 65.34 0 65 C0 43.55 0 22.1 0 0 Z " fill="#7F7F7F" transform="translate(75,59)"/>
<path d="M0 0 C3.32961021 0.55493503 5.30091917 1.49496853 8 3.5 C9.20272819 5.90545638 9.10071472 7.44996953 9.0625 10.125 C9.05347656 10.94226563 9.04445312 11.75953125 9.03515625 12.6015625 C9.02355469 13.22804688 9.01195312 13.85453125 9 14.5 C8.34 14.5 7.68 14.5 7 14.5 C7 15.16 7 15.82 7 16.5 C3.34291105 18.84053693 0.26800274 19.10971468 -4 18.5 C-6.98291237 15.36411776 -7.88902635 13.20283311 -8.5625 8.9375 C-8 5.5 -8 5.5 -5.875 2.5625 C-3 0.5 -3 0.5 0 0 Z " fill="#6B6B6B" transform="translate(151,75.5)"/>
<path d="M0 0 C0.33 0 0.66 0 1 0 C1 20.46 1 40.92 1 62 C-0.32 60.68 -1.64 59.36 -3 58 C-2.01 58 -1.02 58 0 58 C0 38.86 0 19.72 0 0 Z " fill="#D4D4D4" transform="translate(192,62)"/>
<path d="M0 0 C-1.32 1.32 -2.64 2.64 -4 4 C-7.875 2.25 -7.875 2.25 -9 0 C-3.375 -1.125 -3.375 -1.125 0 0 Z " fill="#DCDCDC" transform="translate(151,117)"/>
<path d="M0 0 C0.33 0.99 0.66 1.98 1 3 C-1.97 5.475 -1.97 5.475 -5 8 C-4.45773019 4.20411134 -2.79872437 2.52788007 0 0 Z " fill="#E2E2E2" transform="translate(163,101)"/>
<path d="M0 0 C2.875 -0.125 2.875 -0.125 6 0 C6.66 0.66 7.32 1.32 8 2 C7.01 2.66 6.02 3.32 5 4 C4.01 3.67 3.02 3.34 2 3 C2.33 2.67 2.66 2.34 3 2 C2.01 1.34 1.02 0.68 0 0 Z " fill="#7A7A7A" transform="translate(148,76)"/>
</svg>
